<?xml version="1.0" standalone="no"?>
<!DOCTYPE svg PUBLIC "-//W3C//DTD SVG 20010904//EN"
 "http://www.w3.org/TR/2001/REC-SVG-20010904/DTD/svg10.dtd">
<svg version="1.0" xmlns="http://www.w3.org/2000/svg"
 width="3375.000000pt" height="3375.000000pt" viewBox="0 0 3375.000000 3375.000000"
 preserveAspectRatio="xMidYMid meet">

<g transform="translate(0.000000,3375.000000) scale(0.100000,-0.100000)"
fill="#000000" stroke="none">
<path d="M16435 32579 c-343 -9 -807 -39 -1095 -69 -256 -27 -381 -41 -440
-50 -36 -5 -90 -12 -120 -15 -30 -4 -80 -10 -110 -15 -30 -5 -104 -17 -165
-25 -60 -9 -148 -23 -195 -31 -47 -9 -112 -19 -145 -25 -33 -5 -80 -13 -105
-19 -25 -5 -85 -16 -135 -25 -49 -9 -108 -20 -130 -25 -22 -4 -76 -16 -120
-25 -44 -9 -98 -20 -120 -25 -22 -5 -71 -16 -110 -25 -93 -21 -121 -27 -320
-76 -187 -45 -287 -71 -475 -124 -25 -7 -70 -20 -100 -28 -289 -82 -1002 -316
-1145 -376 -11 -5 -69 -28 -130 -51 -100 -38 -280 -109 -330 -129 -18 -8 -69
-30 -120 -51 -11 -4 -42 -18 -69 -30 -27 -12 -69 -30 -95 -40 -25 -10 -71 -29
-101 -43 -30 -14 -100 -45 -155 -70 -361 -162 -866 -418 -1222 -620 -43 -25
-96 -55 -118 -67 -127 -71 -560 -338 -770 -474 -489 -319 -1115 -784 -1510
-1121 -328 -281 -395 -340 -700 -625 -96 -89 -532 -526 -630 -630 -209 -223
-303 -328 -456 -506 -175 -203 -201 -234 -277 -328 -41 -50 -86 -107 -102
-126 -16 -19 -67 -84 -114 -145 -245 -312 -434 -572 -691 -950 -132 -195 -467
-734 -565 -910 -12 -22 -42 -75 -67 -118 -77 -136 -94 -168 -205 -377 -106
-199 -203 -392 -316 -630 -72 -154 -122 -261 -122 -265 0 -2 -16 -39 -36 -82
-20 -43 -44 -98 -54 -123 -10 -25 -32 -75 -49 -113 -17 -37 -31 -70 -31 -73 0
-3 -7 -22 -16 -42 -26 -59 -31 -71 -77 -187 -25 -60 -61 -155 -82 -210 -20
-55 -41 -109 -45 -120 -69 -164 -290 -837 -377 -1145 -8 -30 -21 -75 -28 -100
-7 -25 -18 -65 -25 -90 -7 -25 -18 -65 -26 -90 -13 -47 -105 -420 -130 -530
-28 -125 -33 -145 -43 -190 -5 -25 -17 -81 -26 -125 -9 -44 -21 -98 -25 -120
-5 -22 -16 -80 -25 -130 -9 -49 -20 -110 -25 -135 -6 -25 -14 -72 -19 -105 -6
-33 -16 -98 -25 -145 -8 -47 -22 -134 -31 -195 -8 -60 -20 -135 -25 -165 -5
-30 -11 -80 -15 -110 -3 -30 -10 -84 -15 -120 -9 -58 -17 -129 -50 -435 -10
-91 -31 -356 -50 -630 -23 -334 -32 -929 -21 -1339 6 -220 13 -423 16 -451 3
-27 10 -124 15 -215 10 -167 22 -317 40 -490 18 -179 40 -375 50 -445 6 -38
19 -135 30 -215 31 -224 73 -488 109 -680 5 -25 14 -72 20 -105 6 -33 15 -78
20 -100 5 -22 15 -67 21 -100 30 -150 109 -498 130 -575 5 -19 28 -107 50
-195 40 -153 81 -306 100 -370 5 -16 16 -52 24 -80 68 -236 168 -545 256 -795
29 -80 55 -156 60 -170 13 -43 158 -418 191 -495 4 -11 24 -60 44 -110 20 -49
43 -103 50 -120 8 -16 37 -84 65 -150 50 -116 61 -139 120 -270 15 -33 37 -82
50 -110 74 -165 336 -683 437 -865 14 -25 44 -79 66 -120 22 -41 51 -92 64
-112 13 -21 23 -40 23 -43 0 -10 329 -553 414 -685 335 -515 633 -932 960
-1340 93 -116 343 -419 356 -430 3 -3 32 -36 65 -75 223 -260 438 -489 759
-810 261 -260 320 -318 496 -480 194 -178 334 -301 575 -501 528 -439 974
-764 1655 -1206 90 -58 350 -215 565 -340 123 -71 241 -137 435 -242 144 -79
716 -360 885 -436 88 -40 183 -82 210 -95 183 -83 775 -318 1005 -400 245 -86
648 -218 815 -265 17 -5 71 -20 120 -35 50 -14 113 -32 140 -40 28 -7 93 -25
145 -39 132 -36 534 -135 659 -162 102 -22 311 -65 361 -75 25 -5 81 -15 125
-24 240 -46 563 -98 805 -130 764 -101 1351 -140 2130 -140 842 0 1597 55
2345 170 55 9 127 20 160 25 206 31 691 122 850 160 22 5 74 16 115 25 158 35
585 142 760 191 103 29 115 33 170 49 30 9 64 19 75 22 110 29 648 204 800
259 265 97 641 242 712 275 24 10 45 19 49 19 3 0 35 13 71 30 35 17 66 30 69
30 5 0 210 90 334 147 41 19 107 48 145 66 90 41 636 314 740 370 175 94 233
126 389 214 201 115 648 386 746 453 14 10 108 73 210 140 401 267 940 668
1294 964 222 185 467 400 656 574 161 149 713 701 862 862 761 825 1430 1722
2005 2690 71 119 109 186 193 335 27 48 89 161 147 270 60 112 331 653 375
750 135 297 172 381 261 595 116 281 193 480 301 775 63 173 219 658 271 840
9 33 20 71 25 85 4 14 12 43 18 65 6 22 18 65 26 95 60 215 165 635 197 790 5
25 20 99 34 165 14 66 34 165 44 220 11 55 22 114 25 130 24 123 75 430 97
580 119 839 164 1469 164 2305 0 830 -46 1473 -164 2305 -24 164 -71 447 -106
630 -9 44 -19 100 -24 125 -22 118 -55 274 -91 425 -5 22 -17 74 -26 115 -18
80 -103 419 -128 510 -27 98 -94 333 -115 405 -12 39 -31 102 -42 140 -30 99
-150 459 -199 595 -23 63 -47 133 -54 155 -42 127 -289 740 -366 910 -15 33
-36 80 -48 105 -62 139 -83 184 -123 270 -53 115 -297 600 -364 725 -176 327
-437 774 -583 1000 -523 808 -962 1388 -1540 2039 -255 286 -326 361 -636 672
-378 377 -692 666 -1046 959 -58 48 -114 94 -125 104 -218 183 -682 533 -978
738 -84 59 -423 284 -544 362 -185 119 -620 378 -813 483 -36 20 -87 48 -115
64 -98 54 -373 196 -583 300 -196 97 -246 120 -387 184 -27 12 -78 35 -112 51
-34 16 -91 40 -125 55 -63 26 -75 31 -181 78 -32 14 -60 26 -63 26 -3 0 -24 9
-47 19 -51 23 -339 137 -457 181 -47 17 -101 37 -120 45 -96 37 -347 124 -505
175 -71 23 -161 52 -200 65 -38 12 -97 30 -130 40 -33 9 -80 24 -105 32 -25 8
-67 21 -95 28 -27 8 -84 23 -125 35 -141 40 -455 123 -555 146 -33 8 -78 18
-100 23 -22 6 -74 17 -115 26 -41 9 -91 20 -110 25 -43 10 -180 39 -235 50
-163 32 -272 53 -400 75 -202 35 -257 44 -360 60 -60 8 -135 20 -165 25 -30 5
-80 11 -110 15 -30 3 -84 10 -120 15 -58 9 -129 17 -435 50 -101 11 -397 34
-645 50 -208 13 -800 30 -985 28 -77 0 -257 -4 -400 -9z m3571 -1314 c59 -30
73 -52 266 -405 20 -36 47 -85 60 -110 14 -25 47 -85 73 -135 26 -49 60 -112
75 -140 26 -47 64 -119 177 -335 28 -52 76 -143 107 -202 253 -478 441 -861
455 -926 31 -147 -15 -268 -123 -325 -30 -16 -58 -21 -106 -21 -102 1 -169 38
-243 135 -15 21 -187 357 -382 748 -196 391 -359 711 -364 711 -5 0 -22 -26
-36 -57 -27 -58 -42 -108 -115 -388 -134 -517 -395 -1117 -684 -1570 -154
-242 -634 -895 -830 -1130 -186 -223 -588 -608 -906 -870 -25 -20 -54 -44 -65
-53 -241 -203 -688 -539 -1125 -849 -298 -210 -372 -257 -740 -468 -150 -86
-323 -188 -384 -227 -61 -39 -162 -100 -226 -135 -118 -66 -585 -302 -765
-385 -208 -97 -271 -126 -320 -148 -27 -13 -79 -36 -115 -52 -97 -45 -460
-200 -580 -248 -58 -23 -118 -48 -135 -55 -43 -18 -975 -376 -1005 -385 -14
-5 -77 -27 -140 -50 -195 -70 -534 -182 -820 -270 -74 -23 -146 -45 -160 -49
-33 -11 -78 -24 -170 -51 -111 -32 -301 -90 -330 -100 -30 -11 -281 -87 -330
-100 -230 -63 -423 -77 -524 -40 -71 27 -119 80 -136 150 -24 102 9 225 75
276 44 33 103 53 335 113 107 27 221 57 253 65 31 9 83 23 115 31 31 9 80 22
107 30 28 8 151 44 275 80 124 36 236 70 250 75 14 5 86 27 160 50 177 55 724
237 870 290 63 23 126 46 140 50 162 53 851 318 987 381 24 10 45 19 48 19 4
0 25 9 48 19 23 10 71 31 107 46 240 100 864 401 1135 548 44 24 125 67 180
97 55 29 123 65 150 80 28 15 142 76 255 135 186 98 286 153 408 222 23 13
151 92 285 175 561 350 940 628 1552 1137 310 259 618 568 885 891 34 41 69
84 78 95 62 75 214 273 303 395 531 729 885 1415 1003 1941 29 131 42 229 31
229 -15 0 -150 -108 -245 -195 -52 -48 -201 -190 -330 -315 -423 -409 -483
-454 -600 -454 -198 0 -319 185 -234 358 26 54 92 119 498 491 24 22 274 253
326 301 30 28 150 138 265 245 116 106 293 275 395 375 235 230 314 282 431
283 40 1 69 -6 105 -24z m1905 -3492 c5 -5 8 -2080 7 -4844 l-3 -4834 -922 -3
-923 -2 0 2373 c0 1306 3 3489 7 4852 l6 2478 910 -6 c500 -3 913 -9 918 -14z
m-2579 -2626 c4 -7 7 -1603 5 -3547 l-2 -3535 -922 -3 -923 -2 0 1222 c0 673
3 2272 7 3553 l6 2330 911 -3 c682 -3 913 -7 918 -15z m-2549 -1676 c4 -4 6
-1215 5 -2692 l-3 -2684 -925 0 -925 0 5 650 c10 1289 5 4107 -8 4405 -7 157
-15 298 -19 314 l-6 29 934 -7 c514 -4 937 -11 942 -15z m-2425 -3173 l2
-2208 -920 0 -920 0 0 2203 c0 1212 3 2207 7 2210 3 4 416 6 917 5 l911 -3 3
-2207z m-2350 -606 c2 -1423 0 -1593 -13 -1598 -9 -4 -426 -7 -928 -8 l-912
-1 -3 1597 -2 1598 497 3 c274 1 692 2 928 2 l430 0 3 -1593z m10937 -2332 l0
-565 -1760 -8 c-1876 -8 -11439 -1 -11862 9 l-253 6 0 558 c0 437 3 559 13
563 6 3 3128 5 6937 4 l6925 -2 0 -565z m-3726 -1635 c234 -28 380 -67 551
-148 345 -163 584 -462 684 -857 43 -171 51 -251 51 -505 -1 -321 -28 -490
-116 -715 -163 -419 -536 -710 -1019 -796 -132 -23 -596 -27 -725 -6 -281 47
-480 122 -657 249 -191 137 -376 387 -456 618 -152 435 -130 1021 54 1411 60
127 150 253 258 359 221 219 479 337 841 385 163 22 374 24 534 5z m3261 0
c342 -40 552 -125 712 -288 123 -125 217 -327 243 -523 l7 -52 -89 -5 c-48 -3
-224 -12 -390 -21 -166 -9 -318 -17 -339 -19 l-37 -2 -22 72 c-65 210 -194
298 -435 298 -135 -1 -196 -20 -260 -84 -83 -83 -89 -181 -16 -255 57 -56 138
-87 341 -130 44 -9 96 -21 115 -26 19 -5 67 -17 105 -26 641 -154 936 -334
1062 -645 42 -104 53 -159 60 -289 8 -180 -17 -302 -98 -465 -145 -294 -411
-477 -809 -556 -105 -21 -142 -23 -420 -23 -246 0 -325 3 -410 17 -326 56
-509 140 -663 308 -117 128 -209 298 -252 467 -26 101 -43 217 -34 226 10 11
82 16 514 40 154 9 296 18 315 21 l36 6 13 -63 c51 -236 146 -360 326 -425 71
-26 299 -26 369 0 182 66 271 234 201 380 -67 141 -159 186 -618 297 -573 140
-879 332 -993 624 -55 139 -68 307 -35 451 76 334 334 565 731 656 196 44 545
60 770 34z m-10800 -350 l0 -315 -675 0 -675 0 0 -265 0 -265 578 -2 577 -3 0
-295 0 -295 -577 -3 -578 -2 -2 -603 -3 -602 -455 0 -455 0 -3 1470 c-1 809 0
1476 3 1483 3 9 240 12 1135 12 l1130 0 0 -315z m1992 125 c38 -102 75 -201
83 -220 8 -19 47 -125 88 -235 42 -110 114 -302 161 -427 47 -126 86 -231 86
-234 0 -3 6 -20 14 -37 8 -18 44 -113 81 -212 36 -99 70 -189 75 -200 4 -11
38 -101 75 -200 37 -99 77 -207 90 -240 13 -33 54 -141 90 -240 37 -99 70
-189 75 -200 5 -11 34 -87 65 -169 43 -115 53 -151 43 -158 -7 -4 -222 -7
-477 -5 l-464 2 -17 55 c-10 30 -25 82 -35 115 -9 33 -28 94 -41 135 -12 41
-30 101 -39 133 l-16 57 -522 -2 -521 -3 -22 -75 c-13 -41 -44 -147 -70 -235
-26 -88 -54 -166 -62 -172 -12 -10 -119 -13 -456 -13 -243 0 -447 4 -454 9
-10 6 -4 31 27 112 21 57 65 174 96 259 31 85 61 164 65 175 5 11 31 81 58
155 28 74 80 216 117 315 37 99 90 241 117 315 27 74 53 144 58 155 5 11 27
72 50 135 23 63 45 124 50 135 4 11 34 90 65 175 31 85 61 164 65 175 8 19 39
101 161 433 28 75 57 153 64 172 8 19 28 73 45 120 18 47 36 95 41 108 l9 22
506 -2 506 -3 70 -185z m3593 -175 l0 -360 -462 -3 -463 -2 -2 -1118 -3 -1117
-450 0 -450 0 -3 1118 -2 1117 -465 0 -465 0 0 365 0 365 1383 -2 1382 -3 0
-360z m750 -4595 c241 -45 330 -73 498 -156 178 -87 345 -237 459 -409 76
-114 114 -193 158 -323 111 -330 119 -812 19 -1177 -96 -355 -332 -647 -652
-808 -122 -61 -167 -78 -302 -111 -361 -90 -842 -69 -1185 51 -412 145 -706
489 -820 958 -49 201 -63 501 -34 727 39 302 115 511 262 718 46 64 235 260
252 260 5 0 15 6 22 13 23 22 140 92 213 126 156 74 309 116 520 141 94 11
515 4 590 -10z m6044 -5 c213 -38 407 -116 526 -212 112 -90 202 -223 253
-371 26 -73 66 -252 58 -259 -5 -6 -147 -16 -451 -33 -110 -6 -245 -13 -301
-17 l-100 -5 -22 73 c-52 179 -154 266 -348 295 -233 35 -414 -64 -414 -226 0
-46 30 -93 88 -137 51 -39 129 -65 327 -108 707 -155 1025 -306 1199 -571 84
-128 132 -321 123 -492 -16 -298 -161 -565 -401 -734 -173 -122 -369 -190
-637 -222 -284 -33 -665 -10 -904 55 -300 81 -493 237 -627 507 -65 130 -95
233 -125 423 l-5 35 198 13 c110 7 255 16 324 21 69 5 178 12 243 16 116 6
117 6 117 -16 0 -46 52 -210 85 -267 31 -53 134 -146 191 -173 59 -27 170 -50
245 -50 73 0 190 26 238 52 78 43 138 118 160 200 32 116 -45 255 -175 314
-110 50 -147 61 -500 148 -517 128 -817 315 -941 586 -47 104 -58 159 -58 310
0 143 4 167 43 280 85 240 317 438 615 524 77 22 244 51 347 60 119 10 538 -2
629 -19z m-16929 -48 c254 -51 432 -140 593 -296 201 -194 314 -441 379 -826
18 -108 18 -588 0 -705 -32 -209 -50 -271 -122 -425 -88 -191 -232 -361 -401
-474 -108 -73 -203 -112 -360 -150 -241 -59 -279 -61 -1079 -61 l-730 0 0
1481 0 1480 818 -4 c717 -3 827 -6 902 -20z m3188 -95 c53 -143 189 -504 207
-552 39 -98 158 -419 172 -459 8 -25 21 -59 28 -76 7 -16 43 -111 80 -210 36
-99 70 -189 75 -200 4 -11 38 -101 75 -200 37 -99 70 -189 75 -200 4 -11 49
-128 98 -260 50 -132 124 -330 165 -440 41 -110 78 -210 82 -223 l6 -22 -477
2 -477 3 -18 55 c-10 30 -41 134 -69 230 -29 96 -56 183 -61 193 -9 16 -44 17
-517 17 -279 0 -512 -4 -518 -8 -6 -4 -16 -27 -23 -52 -20 -72 -27 -96 -79
-270 l-50 -165 -466 -3 c-256 -1 -466 -1 -466 1 0 2 11 33 24 68 13 35 49 134
80 219 32 85 61 164 65 175 5 11 35 90 66 175 32 85 84 225 115 310 32 85 81
218 110 295 28 77 58 156 65 175 8 19 37 98 65 175 58 157 147 400 160 430 11
29 101 270 150 405 23 63 48 129 55 145 7 17 20 50 28 75 13 40 75 205 106
283 l11 27 507 0 508 0 43 -118z m4712 99 c111 -32 218 -73 268 -103 119 -72
228 -196 284 -323 47 -107 53 -142 52 -290 0 -125 -3 -149 -27 -218 -59 -170
-170 -293 -338 -374 -54 -27 -99 -50 -99 -53 0 -3 28 -13 63 -23 34 -10 108
-40 164 -68 169 -83 279 -208 340 -388 24 -70 27 -90 27 -246 1 -135 -3 -183
-17 -233 -56 -196 -189 -373 -355 -471 -119 -70 -211 -93 -538 -131 -155 -18
-237 -20 -991 -20 l-823 0 0 1480 0 1481 973 -4 c754 -3 982 -6 1017 -16z
m5580 -1096 l0 -1115 720 0 720 0 0 -365 0 -365 -1175 0 -1175 0 0 1480 0
1480 455 0 455 0 0 -1115z m6703 1077 c8 -20 36 -94 62 -162 25 -69 86 -231
135 -360 48 -129 123 -327 165 -440 42 -113 83 -221 90 -240 8 -19 41 -109 75
-200 34 -91 67 -181 75 -200 7 -19 47 -125 88 -235 209 -558 259 -692 267
-710 5 -11 36 -92 69 -180 33 -88 63 -168 66 -177 7 -17 -20 -18 -472 -18
l-479 0 -28 93 c-15 50 -32 103 -36 117 -5 14 -22 72 -39 130 -17 58 -35 116
-39 130 l-7 25 -520 0 -519 0 -34 -110 c-19 -60 -52 -172 -75 -247 l-40 -138
-464 0 c-312 0 -463 3 -463 10 0 6 13 45 29 88 16 42 59 158 96 257 124 336
167 450 175 470 4 11 34 90 65 175 31 85 83 225 115 310 32 85 80 216 108 290
27 74 80 216 117 315 37 99 88 239 115 310 46 125 126 340 226 608 l48 127
507 0 507 0 15 -38z"/>
<path d="M18794 15026 c-115 -33 -224 -104 -295 -191 -101 -126 -159 -355
-159 -630 0 -384 94 -618 300 -748 172 -107 441 -116 639 -20 71 35 189 151
220 218 66 140 101 342 101 577 0 439 -126 674 -420 783 -63 24 -315 30 -386
11z"/>
<path d="M13076 14900 c-7 -17 -54 -170 -66 -215 -5 -16 -32 -106 -60 -200
-29 -93 -58 -190 -65 -215 -7 -25 -30 -99 -50 -165 -20 -66 -42 -141 -50 -167
-7 -25 -16 -51 -19 -57 -5 -8 86 -11 318 -11 179 0 326 2 326 3 0 2 -9 30 -19
63 -11 32 -34 106 -51 164 -18 58 -40 130 -50 160 -10 30 -25 78 -33 105 -33
110 -99 321 -107 345 -5 14 -16 52 -25 85 -24 86 -42 124 -49 105z"/>
<path d="M17527 10045 c-166 -37 -307 -146 -382 -299 -42 -85 -51 -113 -75
-261 -49 -287 -8 -648 93 -825 36 -65 125 -156 188 -192 105 -61 161 -73 334
-73 124 0 170 4 205 17 194 72 295 171 354 349 81 245 88 654 15 880 -36 112
-71 171 -144 245 -81 82 -177 134 -294 159 -85 18 -212 18 -294 0z"/>
<path d="M6320 9224 l0 -786 248 4 c221 5 254 8 312 27 171 58 261 173 307
391 25 118 30 488 8 625 -39 251 -114 376 -271 452 -109 52 -233 73 -435 73
l-169 0 0 -786z"/>
<path d="M9742 9903 c-5 -16 -20 -62 -32 -103 -12 -41 -44 -149 -72 -240 -27
-91 -53 -178 -58 -195 -5 -16 -32 -106 -60 -200 -56 -183 -80 -266 -80 -277 0
-11 628 -10 634 1 3 4 1 21 -4 37 -22 66 -58 183 -75 239 -9 33 -25 85 -35
115 -10 30 -25 78 -33 105 -34 111 -99 322 -107 345 -5 14 -20 64 -35 113 -14
48 -28 87 -29 87 -2 0 -8 -12 -14 -27z"/>
<path d="M13955 10097 c-3 -7 -4 -134 -3 -282 l3 -270 200 -3 c234 -4 368 10
440 44 89 42 135 126 135 247 0 141 -74 228 -219 261 -92 21 -549 24 -556 3z"/>
<path d="M13950 8675 l0 -305 294 0 c302 0 367 6 460 45 46 19 109 81 133 132
25 52 26 212 1 264 -23 48 -69 94 -119 119 -81 42 -155 50 -471 50 l-298 0 0
-305z"/>
<path d="M26725 9763 c-26 -87 -53 -178 -60 -203 -7 -25 -30 -99 -50 -165 -42
-138 -63 -208 -75 -250 -4 -16 -24 -80 -43 -142 -19 -62 -32 -115 -29 -118 3
-3 147 -5 320 -5 l314 0 -6 34 c-4 19 -15 61 -25 93 -27 83 -64 202 -100 323
-18 58 -36 116 -41 130 -5 14 -27 86 -50 160 -81 265 -93 300 -100 300 -4 0
-29 -71 -55 -157z"/>
</g>
</svg>
